<svg xmlns="http://www.w3.org/2000/svg" viewBox="0 0 127.14 96.36">
  <path fill="#23272A" d="M107.7 8.07A105.15 105.15 0 0 0 81.47 0a72.06 72.06 0 0 0-3.36 6.83 97.68 97.68 0 0 0-29.11 0A72.37 72.37 0 0 0 45.64 0a105.89 105.89 0 0 0-26.25 8.09C2.79 32.65-1.71 56.6.54 80.21a105.73 105.73 0 0 0 32.17 16.15 77.7 77.7 0 0 0 6.89-11.11 68.42 68.42 0 0 1-10.85-5.18c.91-.66 1.8-1.34 2.66-2.03a75.57 75.57 0 0 0 64.32 0c.87.71 1.76 1.39 2.66 2.03a68.68 68.68 0 0 1-10.87 5.19 77 77 0 0 0 6.89 11.1 105.25 105.25 0 0 0 32.19-16.14c2.64-27.38-4.51-51.11-18.9-72.15ZM42.45 65.69C36.18 65.69 31 60 31 53.12c0-6.88 5.05-12.58 11.45-12.58S54 46.23 53.89 53.12c0 6.88-5.06 12.57-11.44 12.57Zm42.24 0C78.41 65.69 73.25 60 73.25 53.12c0-6.88 5.06-12.58 11.44-12.58S96.23 46.23 96.12 53.12c0 6.88-5.04 12.57-11.43 12.57Z"/>
</svg>
